<?xml version="1.0" encoding="utf-8"?>
<!-- Generator: Adobe Illustrator 22.1.0, SVG Export Plug-In . SVG Version: 6.00 Build 0)  -->
<svg version="1.1" id="Camada_1" xmlns="http://www.w3.org/2000/svg" xmlns:xlink="http://www.w3.org/1999/xlink" x="0px" y="0px"
	 viewBox="0 0 196 196" style="enable-background:new 0 0 196 196;" xml:space="preserve">
<style type="text/css">
	.st0{opacity:7.000000e-02;enable-background:new    ;}
	.st1{opacity:0.2;}
	.st2{fill:#FFFFFF;}
	.st3{fill:#538E46;}
</style>
<path class="st0" d="M166.7,27.4C177.4,32.9,204,80,179,117s-3.4,69.5-55.8,69.5c-39.5,0-80.6,11.5-106.3-24.1S5.8,72.2,21.4,44.9
	s25-41.1,74.9-38.8C146.3,8.5,150.2,18.8,166.7,27.4z"/>
<g class="st1">
	<path d="M72.3,35.4c-12.5,0-22.6,10.3-22.6,22.9v13.8c0,5.1,45.3,5.1,45.3,0V58.3C94.8,45.6,84.6,35.4,72.3,35.4z M58.4,62.8
		l0.1-4.5c0-7.6,6-13.8,13.6-13.8c7.5,0,13.6,6.1,13.6,13.8v4.5C79.9,64.4,64,64.6,58.4,62.8z"/>
	<path d="M154.6,59c-1.4,0-2.6-1.1-2.6-2.6c0-1.3-1.1-2.4-2.4-2.4H129c-1.1,0-2,0.9-2,2v26c0,2.8,2.2,5,5,5h17.5
		c1.4,0,2.5,1.1,2.5,2.5s1.1,2.5,2.5,2.5H167c2.8,0,5-2.2,5-5V64c0-2.8-2.2-5-5-5H154.6z"/>
	<path class="st2" d="M64.9,99h19.3c2.7,0,4.9-2,4.9-4.5s-2.3-4.5-5-4.5H64.9c-2.7,0-4.9,2-4.9,4.5S62.2,99,64.9,99z"/>
</g>
<path class="st3" d="M61.7,84c-3.6,0-6.7,2.8-6.7,6.5s3.1,6.5,6.7,6.5h18.6c3.5,0,6.5-2.9,6.7-6.4v-0.1c0-3.7-3.1-6.5-6.7-6.5H61.7z
	 M59,90.5c0-1.3,1.1-2.5,2.7-2.5h18.6c1.5,0,2.7,1.2,2.7,2.4c-0.1,1.4-1.4,2.6-2.7,2.6H61.7C60.1,93,59,91.8,59,90.5z"/>
<path class="st3" d="M86,58v-2c0-8.9-7-16-15.9-16C61.3,40,54,47.1,54,56v2c-1.1,0-2,0.9-2,2c0,1,0.6,1.8,1.1,2.2s1.1,0.7,1.6,0.9
	c1.1,0.4,2.5,0.7,4.1,1c3.1,0.5,7.2,0.7,11.3,0.7s8.2-0.2,11.3-0.7c1.5-0.2,3-0.6,4.1-1c0.5-0.2,1.1-0.5,1.6-0.9
	C87.4,61.8,88,61,88,60C88,58.9,87.1,58,86,58z M70.1,44C76.7,44,82,49.3,82,56v3.9c-0.4,0.1-0.8,0.2-1.3,0.2
	c-2.9,0.4-6.8,0.7-10.7,0.7s-7.8-0.2-10.7-0.7C58.8,60,58.4,60,58,59.9V56C58,49.3,63.4,44,70.1,44z"/>
<path class="st3" d="M121,30c-3.9,0-7,3.1-7,7c0,3.2,2.1,5.8,5,6.7V88l-8.5-8.6l0,0c-0.7-0.7-1.4-1.4-2.1-2.2
	c-1.5-1.6-3.2-3.4-4.9-4.9c-2.1-1.8-4.6-3.4-7.4-4V56l0,0c-0.2-14.2-12-25-25.9-25C56.2,31,45,42,45,56v12.6c-7.9,1-14,7.7-14,16
	V122c0,5,4.5,9,9.3,9c2,0,4.1-0.7,5.7-1.9V169c0,1.1,0.9,2,2,2h19c1.1,0,2-0.9,2-2v-45h5v45c0,1.1,0.9,2,2,2h19c1.1,0,2-0.9,2-2
	v-4.7c0-0.3,0-0.6,0-0.9v-25c0-0.1,0-0.2,0-0.4s0-0.2,0-0.4V91.3l20.4,20.6l0,0c0.5,0.5,1.1,0.9,1.6,1.3V169c0,1.1,0.9,2,2,2
	s2-0.9,2-2v-54.4c2.5,0.2,5.1-0.7,7.1-2.6c3.5-3.5,3.5-9.2,0-12.8l0,0L123,92v-9h22.1v3c0,1.1,0.9,2,2,2H166c1.1,0,2-0.9,2-2V53
	c0-1.1-0.9-2-2-2h-16.9v-3c0-1.1-0.9-2-2-2H123v-2.3c2.9-0.9,5-3.5,5-6.7C128,33.1,124.9,30,121,30z M118,37c0-1.7,1.3-3,3-3
	s3,1.3,3,3s-1.3,3-3,3S118,38.7,118,37z M78,167v-2.7c0-4,3.3-7.3,7.5-7.3c4,0,7.1,2.9,7.5,6.6v3.4H78z M85.5,153
	c-2.9,0-5.5,1-7.5,2.7V140h15v15.7C91,154,88.4,153,85.5,153z M65,155.7c-2-1.7-4.6-2.7-7.5-2.7s-5.5,1-7.5,2.7V140h15V155.7z
	 M50,164.3c0-4,3.3-7.3,7.5-7.3s7.5,3.3,7.5,7.3v2.7H50V164.3z M50,136v-29h43v29H78v-14c0-1.1-0.9-2-2-2h-9c-1.1,0-2,0.9-2,2v14H50
	z M93,103H50V86c0-1.1-0.9-2-2-2s-2,0.9-2,2v27H35V84.6c0-6.3,4.7-11.4,10.8-12c0.1,0.2,0.3,0.3,0.4,0.4c0.6,0.5,1.3,0.8,2.1,1.1
	c1.5,0.5,3.5,1,5.7,1.3c4.5,0.6,10.5,0.9,16.5,0.8c5.9-0.1,11.9-0.4,16.5-1.2c2.3-0.4,4.3-0.8,5.7-1.4c0.7-0.3,1.5-0.6,2-1.1
	c0.1-0.1,0.3-0.2,0.4-0.4c1.9,0.3,3.7,1.4,5.7,3.1c1.6,1.3,3,2.9,4.4,4.4c0.8,0.8,1.6,1.7,2.4,2.5l0,0L119,93.7v0.5l-6.8,6.9
	l-15.8-16c-0.4-0.4-0.9-0.6-1.4-0.6l0,0c-1.1,0-2,0.9-2,2C93,86.5,93,103,93,103z M46,122c0,1.2-0.6,2.5-1.7,3.5
	c-1.1,1-2.6,1.6-3.9,1.6c-2.8,0-5.3-2.4-5.3-5v-5h11L46,122L46,122z M115,103.9l4-4v8.1L115,103.9z M127.2,109.2
	c-1.2,1.2-2.7,1.6-4.2,1.4V97.7l4.2,4.3l0,0C129.2,104,129.2,107.2,127.2,109.2z M123,50h22.1v2c0,0.1-0.1,0.3-0.1,0.5V79h-22V50z
	 M149,55h15v29h-14.9v-3c0-0.2,0-0.3-0.1-0.5V55z M70.1,35C82,35,91.8,44.2,92,56v13.5c-0.2,0.1-0.4,0.2-0.7,0.3
	c-1.1,0.4-2.8,0.8-4.9,1.2c-4.3,0.7-10,1.1-15.9,1.1c-5.8,0.1-11.6-0.2-15.9-0.8c-2.2-0.3-3.8-0.7-4.9-1.1c-0.3-0.1-0.6-0.2-0.7-0.3
	V56C49,44.3,58.4,35,70.1,35z"/>
<path class="st3" d="M174,119c1.1,0,2,0.9,2,2v4h4c1.1,0,2,0.9,2,2c0,1.1-0.9,2-2,2h-4v4c0,1.1-0.9,2-2,2s-2-0.9-2-2v-4h-4
	c-1.1,0-2-0.9-2-2c0-1.1,0.9-2,2-2h4v-4C172,119.9,172.9,119,174,119z"/>
<path class="st3" d="M29,39l-4-4l-4,4l4,4L29,39z"/>
<path class="st3" d="M146.5,169l8.5,8.5l-8.5,8.5l-8.5-8.5L146.5,169z M143.7,177.5l2.8,2.8l2.8-2.8l-2.8-2.8L143.7,177.5z"/>
</svg>
