<?xml version="1.0" encoding="utf-8"?>
<!-- Generator: Adobe Illustrator 22.1.0, SVG Export Plug-In . SVG Version: 6.00 Build 0)  -->
<svg version="1.1" id="Camada_1" xmlns="http://www.w3.org/2000/svg" xmlns:xlink="http://www.w3.org/1999/xlink" x="0px" y="0px"
	 viewBox="0 0 196 196" style="enable-background:new 0 0 196 196;" xml:space="preserve">
<style type="text/css">
	.st0{opacity:0.2;}
	.st1{opacity:0.35;}
	.st2{opacity:7.000000e-02;enable-background:new    ;}
	.st3{fill:#538E46;}
</style>
<g class="st0">
	<path d="M53.5,108c9.1,0,16.5-7.4,16.5-16.5C70,82.4,62.6,75,53.5,75S37,82.4,37,91.5C37,100.6,44.4,108,53.5,108z"/>
	<path d="M151.6,106c3.9-3.2,6.4-8.1,6.4-13.5c0-9.7-7.8-17.5-17.5-17.5S123,82.8,123,92.5c0,5.4,2.5,10.3,6.4,13.5h-4.6
		c-5.4,0-9.8,4.4-9.8,9.8v10.6c-0.9-0.3-1.8-0.4-2.8-0.4h-3.4c3.2-3.2,5.3-7.6,5.3-12.5c0-9.7-7.8-17.5-17.5-17.5S79,103.8,79,113.5
		c0,0.6,0,1.2,0.1,1.7c-1.6-3.1-5-5.2-8.9-5.2H43c-8,0-14,8-14,13v31c0,1.7,1.3,3,3,3h39v18c0,1.7,1.3,3,3,3h45c1.7,0,3-1.3,3-3v-18
		h41c1.7,0,3-1.3,3-3v-33.5c0-9-8.1-14.5-13.5-14.5H151.6z"/>
</g>
<g class="st1">
	<path class="st3" d="M28,28c0-1.1,0.9-2,2-2h26c1.1,0,2,0.9,2,2s-0.9,2-2,2H30C28.9,30,28,29.1,28,28z"/>
	<path class="st3" d="M30,35c-1.1,0-2,0.9-2,2s0.9,2,2,2h19c1.1,0,2-0.9,2-2s-0.9-2-2-2H30z"/>
	<path class="st3" d="M20,16c-1.1,0-2,0.9-2,2v28c0,1.1,0.9,2,2,2h17.7l18.1,14.6c0.6,0.5,1.4,0.6,2.1,0.2c0.7-0.3,1.1-1,1.1-1.8V48h7
		c1.1,0,2-0.9,2-2V18c0-1.1-0.9-2-2-2H20z M22,44V20h42v24h-9v12.8L39.7,44.4c-0.4-0.3-0.8-0.4-1.3-0.4H22z"/>
	<path class="st3" d="M135,26c-1.1,0-2,0.9-2,2s0.9,2,2,2h26c1.1,0,2-0.9,2-2s-0.9-2-2-2H135z"/>
	<path class="st3" d="M133,37c0-1.1,0.9-2,2-2h16c1.1,0,2,0.9,2,2s-0.9,2-2,2h-16C133.9,39,133,38.1,133,37z"/>
	<path class="st3" d="M171,18c0-1.1-0.9-2-2-2h-43c-1.1,0-2,0.9-2,2v30c0,1.1,0.9,2,2,2h5v7c0,0.7,0.4,1.4,1,1.7c0.6,0.4,1.4,0.3,2,0l14-8.7H169
		c1.1,0,2-0.9,2-2V18z M167,20v26h-19.5c-0.4,0-0.7,0.1-1.1,0.3L135,53.4V46h-7V20H167z"/>
	<path class="st3" d="M84,58c0-1.1,0.9-2,2-2h19c1.1,0,2,0.9,2,2s-0.9,2-2,2H86C84.9,60,84,59.1,84,58z"/>
	<path class="st3" d="M115,47c0-1.1-0.9-2-2-2H78c-1.1,0-2,0.9-2,2v22c0,1.1,0.9,2,2,2h5v9c0,0.8,0.5,1.5,1.2,1.8c0.7,0.3,1.6,0.2,2.2-0.4
		L97.2,71H113c1.1,0,2-0.9,2-2V47z M111,67H95.6L87,75.3V67h-7V49h31V67z"/>
</g>
<path class="st2" d="M40.4,50.2l15.1,12.3c0.6,0.5,1.4,0.6,2.1,0.3c0.7-0.3,1.3-1,1.3-1.8V48h7c1.1,0,2-0.9,2-2v-7.1
	c19.1-5.5,38.2-5.7,56,2.2V48c0,1.1,0.9,2,2,2h5v7c0,0.7,0.9,1.4,1.5,1.8s1.4,0.3,2-0.1l8.4-5.4c1.4,1.2,2.7,2.4,4.1,3.7
	c30.8,29.8,26.8,66,24.3,82.8c-0.2,1.4-0.4,2.8-0.5,4.3c-1.9,16.9-4.6,40.9-76,37.5C17,178,16.2,144.3,14.5,135.2
	c-1.7-9.2-2-29.4,2-46.2S17.3,53.3,40.4,50.2z M78,45c-1.1,0-2,0.9-2,2v22c0,1.1,0.9,2,2,2h5v9c0,0.8,0.9,1.5,1.6,1.8
	c0.7,0.3,1.6,0.1,2.2-0.4L97.2,71H113c1.1,0,2-0.9,2-2V47c0-1.1-0.9-2-2-2H78z"/>
<path class="st3" d="M100,11c1.1,0,2,0.9,2,2v4h4c1.1,0,2,0.9,2,2s-0.9,2-2,2h-4v4c0,1.1-0.9,2-2,2c-1.1,0-2-0.9-2-2v-4h-4
	c-1.1,0-2-0.9-2-2s0.9-2,2-2h4v-4C98,11.9,98.9,11,100,11z"/>
<path class="st3" d="M181,76l-4-4l-4,4l4,4L181,76z"/>
<path class="st3" d="M40,173.5l-8.5-8.5l-8.5,8.5l8.5,8.5L40,173.5z M31.5,176.3l-2.8-2.8l2.8-2.8l2.8,2.8L31.5,176.3z"/>
<path class="st3" d="M65,146c0-10.3,7.1-18.9,16.6-21.3c-5.2-3.5-8.6-9.4-8.6-16.2C73,97.7,81.7,89,92.5,89
	c10.8,0,19.5,8.7,19.5,19.5c0,6.7-3.4,12.7-8.6,16.2c9.5,2.4,16.6,11,16.6,21.3v27c0,1.1-0.9,2-2,2H67c-1.1,0-2-0.9-2-2V146z
	 M79,143c1.1,0,2,0.9,2,2v26h23v-26c0-1.1,0.9-2,2-2s2,0.9,2,2v26h8v-25c0-9.9-8.1-18-18-18H87c-9.9,0-18,8.1-18,18v25h8v-26
	C77,143.9,77.9,143,79,143z M77,108.5c0,8.6,6.9,15.5,15.5,15.5c8.6,0,15.5-6.9,15.5-15.5c0-8.6-6.9-15.5-15.5-15.5
	C83.9,93,77,99.9,77,108.5z"/>
<path class="st3" d="M36,120c1.1,0,2,0.9,2,2v28h19c1.1,0,2,0.9,2,2s-0.9,2-2,2H24c-1.1,0-2-0.9-2-2v-28c0-9.7,7-17.8,16.2-19.6
	C33.2,100.8,30,95,30,88.5C30,77.7,38.7,69,49.5,69S69,77.7,69,88.5c0,6.3-3,11.9-7.7,15.5H64c1.1,0,2,0.9,2,2s-0.9,2-2,2H42
	c-8.8,0-16,7.2-16,16v26h8v-28C34,120.9,34.9,120,36,120z M34,88.5c0,8.6,6.9,15.5,15.5,15.5S65,97.1,65,88.5S58.1,73,49.5,73
	S34,79.9,34,88.5z"/>
<path class="st3" d="M151,122c0-1.1-0.9-2-2-2s-2,0.9-2,2v28h-19c-1.1,0-2,0.9-2,2s0.9,2,2,2h33c1.1,0,2-0.9,2-2v-28
	c0-9.7-7-17.8-16.2-19.6c4.9-3.5,8.2-9.3,8.2-15.9c0-10.8-8.7-19.5-19.5-19.5S116,77.7,116,88.5c0,6.3,3,11.9,7.7,15.5H121
	c-1.1,0-2,0.9-2,2s0.9,2,2,2h22c8.8,0,16,7.2,16,16v26h-8V122z M135.5,104c-8.6,0-15.5-6.9-15.5-15.5S126.9,73,135.5,73
	S151,79.9,151,88.5S144.1,104,135.5,104z"/>
</svg>
