<?xml version="1.0" encoding="utf-8"?>
<!-- Generator: Adobe Illustrator 22.1.0, SVG Export Plug-In . SVG Version: 6.00 Build 0)  -->
<svg version="1.1" id="Camada_1" xmlns="http://www.w3.org/2000/svg" xmlns:xlink="http://www.w3.org/1999/xlink" x="0px" y="0px"
	 viewBox="0 0 196 196" style="enable-background:new 0 0 196 196;" xml:space="preserve">
<style type="text/css">
	.st0{opacity:7.000000e-02;enable-background:new    ;}
	.st1{opacity:0.2;enable-background:new    ;}
	.st2{fill:#538E46;}
</style>
<path class="st0" d="M34.4,163.4c-18.9-27.7-40-74.3-22.6-115.8C27.1,11.1,120.2-8,154.5,25.7c34.3,33.7,41.7,87.5,33.3,116
	c-8.4,28.6-24.7,54.3-79.5,44.1C53.5,175.6,43.7,177,34.4,163.4z"/>
<circle class="st1" cx="137" cy="146" r="19"/>
<path class="st2" d="M43,40c0-2.8,2.2-5,5-5h92c2.8,0,5,2.2,5,5v73c0,1.1-0.9,2-2,2s-2-0.9-2-2V40c0-0.6-0.4-1-1-1H48
	c-0.6,0-1,0.4-1,1v115c0,0.6,0.4,1,1,1h58c1.1,0,2,0.9,2,2s-0.9,2-2,2H48c-2.8,0-5-2.2-5-5V40z"/>
<path class="st2" d="M131,163c5.6,0,10.6-2.2,14.4-5.7l21.2,21.1c0.8,0.8,2.1,0.8,2.8,0c0.8-0.8,0.8-2.1,0-2.8L148,154.3
	c2.5-3.5,4-7.7,4-12.3c0-11.6-9.4-21-21-21s-21,9.4-21,21S119.4,163,131,163z M131,159c-9.4,0-17-7.6-17-17s7.6-17,17-17
	s17,7.6,17,17S140.4,159,131,159z"/>
<path class="st2" d="M191.7,142.4l-4.4-4.4l-4.4,4.4l4.4,4.4L191.7,142.4z"/>
<path class="st2" d="M174,44c1.1,0,2,0.9,2,2v4h4c1.1,0,2,0.9,2,2s-0.9,2-2,2h-4v4c0,1.1-0.9,2-2,2s-2-0.9-2-2v-4h-4
	c-1.1,0-2-0.9-2-2s0.9-2,2-2h4v-4C172,44.9,172.9,44,174,44z"/>
<path class="st2" d="M58.5,61c0-1.1,0.9-2,2-2H126c1.1,0,2,0.9,2,2s-0.9,2-2,2H60.5C59.4,63,58.5,62.1,58.5,61z"/>
<path class="st2" d="M60,79c-1.1,0-2,0.9-2,2s0.9,2,2,2h66c1.1,0,2-0.9,2-2s-0.9-2-2-2H60z"/>
<path class="st2" d="M58,101c0-1.1,0.9-2,2-2h65.7c1.1,0,2,0.9,2,2c0,1.1-0.9,2-2,2H60C58.9,103,58,102.1,58,101z"/>
<path class="st2" d="M60,120c-1.1,0-2,0.9-2,2s0.9,2,2,2h37.5c1.1,0,2-0.9,2-2s-0.9-2-2-2H60z"/>
<path class="st2" d="M12.5,114l8.5,8.5l-8.5,8.5L4,122.5L12.5,114z M9.7,122.5l2.8,2.8l2.8-2.8l-2.8-2.8L9.7,122.5z"/>
</svg>
