<?xml version="1.0" encoding="utf-8"?>
<!-- Generator: Adobe Illustrator 22.1.0, SVG Export Plug-In . SVG Version: 6.00 Build 0)  -->
<svg version="1.1" id="Camada_1" xmlns="http://www.w3.org/2000/svg" xmlns:xlink="http://www.w3.org/1999/xlink" x="0px" y="0px"
	 viewBox="0 0 196 196" style="enable-background:new 0 0 196 196;" xml:space="preserve">
<style type="text/css">
	.st0{opacity:7.000000e-02;enable-background:new    ;}
	.st1{opacity:0.2;}
	.st2{fill:#538E46;}
</style>
<path class="st0" d="M51.9,179C51.9,179,52,179,51.9,179c12.3,2.7,25.8,3.3,45,4c9.1,0.4,19.5,0.8,31.6,1.5
	c37.7,2.2,44-14.7,58.5-58.5s-6.7-68-40.5-95.5c-32-26-87.4-6.5-108.3,0.9C37,31.8,36,32.2,35,32.5c-17.7,6.1-22.5,25.9-25.8,81.4
	C5.9,168.9,47.5,178,51.9,179z M46,32h94c3.9,0,7,3.1,7,7v121c0,3.9-3.1,7-7,7H46c-3.9,0-7-3.1-7-7V39C39,35.1,42.1,32,46,32z"/>
<g class="st1">
	<path d="M140,165c2.2,0,4-1.8,4-4V43.5c5.5,0,11,2.9,11,8.4v114.2c0,5.5-4.4,9.9-9.9,9.9H57.9c-5.5,0-7.4-5.5-7.4-11H140z"/>
	<path d="M82,62.5C82,68.9,76.9,74,70.5,74C64.1,74,59,68.9,59,62.5S64.1,51,70.5,51C76.9,51,82,56.1,82,62.5z"/>
</g>
<path class="st2" d="M124.9,17.2l-8.5-8.5l-8.5,8.5l8.5,8.5L124.9,17.2z M116.4,20.1l-2.8-2.8l2.8-2.8l2.8,2.8L116.4,20.1z"/>
<path class="st2" d="M185,134c0-1.1-0.9-2-2-2s-2,0.9-2,2v4h-4c-1.1,0-2,0.9-2,2s0.9,2,2,2h4v4c0,1.1,0.9,2,2,2s2-0.9,2-2v-4h4
	c1.1,0,2-0.9,2-2s-0.9-2-2-2h-4V134z"/>
<path class="st2" d="M12,71c1.1,0,2,0.9,2,2v4h4c1.1,0,2,0.9,2,2s-0.9,2-2,2h-4v4c0,1.1-0.9,2-2,2s-2-0.9-2-2v-4H6c-1.1,0-2-0.9-2-2
	s0.9-2,2-2h4v-4C10,71.9,10.9,71,12,71z"/>
<path class="st2" d="M65,70c6.6,0,12-5.4,12-12s-5.4-12-12-12s-12,5.4-12,12S58.4,70,65,70z M65,66c-4.4,0-8-3.6-8-8s3.6-8,8-8
	s8,3.6,8,8S69.4,66,65,66z"/>
<path class="st2" d="M54,97c0-1.1,0.9-2,2-2h75c1.1,0,2,0.9,2,2s-0.9,2-2,2H56C54.9,99,54,98.1,54,97z"/>
<path class="st2" d="M54,114c0-1.1,0.9-2,2-2h75c1.1,0,2,0.9,2,2s-0.9,2-2,2H56C54.9,116,54,115.1,54,114z"/>
<path class="st2" d="M54,131c0-1.1,0.9-2,2-2h75c1.1,0,2,0.9,2,2s-0.9,2-2,2H56C54.9,133,54,132.1,54,131z"/>
<path class="st2" d="M54,148c0-1.1,0.9-2,2-2h75c1.1,0,2,0.9,2,2s-0.9,2-2,2H56C54.9,150,54,149.1,54,148z"/>
<path class="st2" d="M46,32c-3.9,0-7,3.1-7,7v121c0,3.9,3.1,7,7,7h3v3c0,3.9,3.1,7,7,7h94c3.9,0,7-3.1,7-7V49c0-3.9-3.1-7-7-7h-3v-3
	c0-3.9-3.1-7-7-7H46z M147,46h3c1.7,0,3,1.3,3,3v121c0,1.7-1.3,3-3,3H56c-1.7,0-3-1.3-3-3v-3h87c3.9,0,7-3.1,7-7V46z M43,39
	c0-1.7,1.3-3,3-3h94c1.7,0,3,1.3,3,3v121c0,1.7-1.3,3-3,3H46c-1.7,0-3-1.3-3-3V39z"/>
</svg>
