<?xml version="1.0" encoding="utf-8"?>
<!-- Generator: Adobe Illustrator 22.1.0, SVG Export Plug-In . SVG Version: 6.00 Build 0)  -->
<svg version="1.1" id="Camada_1" xmlns="http://www.w3.org/2000/svg" xmlns:xlink="http://www.w3.org/1999/xlink" x="0px" y="0px"
	 viewBox="0 0 196 196" style="enable-background:new 0 0 196 196;" xml:space="preserve">
<style type="text/css">
	.st0{opacity:7.000000e-02;enable-background:new    ;}
	.st1{opacity:0.2;enable-background:new    ;}
	.st2{fill:#538E46;}
</style>
<path class="st0" d="M168,20.5c11.2,5.8,14.8,26.5,22,72.7c7.2,46.1-26.7,76.8-55.9,88.9c-29.3,12-92.8,15.3-119.7-22
	C-12.5,122.9,10.6,53,24.8,36.8C38.9,20.5,41,3.5,93.2,5.9C145.4,8.4,150.7,11.6,168,20.5z"/>
<circle class="st1" cx="100.3" cy="100.3" r="63.1"/>
<path class="st2" d="M159.6,45.8l-7.6-1.6c-1.1-0.2-2.1,0.5-2.4,1.6c-0.2,1.1,0.5,2.1,1.5,2.4l12.9,2.7c1.1,0.2,2.2-0.5,2.4-1.7
	l1.9-12.4c0.2-1.1-0.6-2.1-1.7-2.3c-1.1-0.2-2.1,0.6-2.3,1.7l-1.2,8l-0.1-0.1c-0.3-0.5-0.6-1.3-1.1-2.3c-1-1.9-2.6-4.5-4.6-7.3
	c-4.1-5.5-10.5-12-19.4-15.4c-1-0.4-2.2,0.1-2.6,1.2c-0.4,1,0.1,2.2,1.2,2.6c7.9,3,13.7,8.8,17.6,14c1.9,2.6,3.4,5,4.3,6.8
	C158.9,44.5,159.3,45.2,159.6,45.8L159.6,45.8z"/>
<path class="st2" d="M22,139.8c0.2-1.1,1.3-1.9,2.4-1.7l12.9,2.7c1.1,0.2,1.8,1.3,1.5,2.4c-0.2,1.1-1.3,1.8-2.4,1.6l-7.6-1.6l0,0.1
	c0.2,0.5,0.6,1.2,1.1,2.1c0.9,1.8,2.4,4.2,4.3,6.8c3.9,5.2,9.7,11.1,17.6,14c1,0.4,1.6,1.5,1.2,2.6c-0.4,1-1.5,1.6-2.6,1.2
	c-8.9-3.3-15.3-9.8-19.4-15.4c-2.1-2.8-3.6-5.4-4.6-7.3c-0.5-0.9-0.9-1.7-1.1-2.3l-0.1-0.1l-1.2,8c-0.2,1.1-1.2,1.8-2.3,1.7
	c-1.1-0.2-1.8-1.2-1.7-2.3L22,139.8z"/>
<path class="st2" d="M25,34c0-1.1-0.9-2-2-2s-2,0.9-2,2v4h-4c-1.1,0-2,0.9-2,2s0.9,2,2,2h4v4c0,1.1,0.9,2,2,2s2-0.9,2-2v-4h4
	c1.1,0,2-0.9,2-2s-0.9-2-2-2h-4V34z"/>
<path class="st2" d="M184.4,137.7l-5.2-5.2l-5.2,5.2l5.2,5.2L184.4,137.7z"/>
<path class="st2" d="M152.8,179.9l-8.9-8.9l-8.9,8.9l8.9,8.9L152.8,179.9z M143.9,182.8l-3-3l3-3l3,3L143.9,182.8z"/>
<path class="st2" d="M96,54.5c0-1.1-0.9-2-2-2c-1.1,0-2,0.9-2,2v43.6l31.1,19.5c0.9,0.6,2.2,0.3,2.8-0.6c0.6-0.9,0.3-2.2-0.6-2.8
	L96,95.9V54.5z"/>
<path class="st2" d="M159,94c0,35.9-29.1,65-65,65c-35.9,0-65-29.1-65-65c0-35.9,29.1-65,65-65C129.9,29,159,58.1,159,94z M155,94
	c0-33.7-27.3-61-61-61c-33.7,0-61,27.3-61,61c0,33.7,27.3,61,61,61C127.7,155,155,127.7,155,94z"/>
</svg>
