<?xml version="1.0" encoding="utf-8"?>
<!-- Generator: Adobe Illustrator 22.1.0, SVG Export Plug-In . SVG Version: 6.00 Build 0)  -->
<svg version="1.1" id="Camada_1" xmlns="http://www.w3.org/2000/svg" xmlns:xlink="http://www.w3.org/1999/xlink" x="0px" y="0px"
	 viewBox="0 0 196 196" style="enable-background:new 0 0 196 196;" xml:space="preserve">
<style type="text/css">
	.st0{opacity:7.000000e-02;enable-background:new    ;}
	.st1{opacity:0.2;enable-background:new    ;}
	.st2{fill:#538E46;}
</style>
<path class="st0" d="M169.5,160.6c23.4-31.7,15.1-75.6,4.7-103c-5.1-13.5-26.2-41.3-69.6-43.4c-43.5-2-59.1,12.2-72.1,34.7
	c-13,22.5-26.5,67.9-4.3,103.6S149,188.4,169.5,160.6z M36,66h103v21H36V66z M36,98h103v21H36V98z M139,127v21H36v-21H139z"/>
<path class="st1" d="M143,70H44c-1.1,0-2,0.9-2,2v19c0,1.1,0.9,2,2,2h99c1.1,0,2-0.9,2-2V72C145,70.9,144.1,70,143,70z"/>
<path class="st2" d="M164.7,29.4l-8.5-8.5l-8.5,8.5l8.5,8.5L164.7,29.4z M156.2,32.2l-2.8-2.8l2.8-2.8l2.8,2.8L156.2,32.2z"/>
<path class="st2" d="M20,140c1.1,0,2,0.9,2,2v4h4c1.1,0,2,0.9,2,2s-0.9,2-2,2h-4v4c0,1.1-0.9,2-2,2s-2-0.9-2-2v-4h-4
	c-1.1,0-2-0.9-2-2s0.9-2,2-2h4v-4C18,140.9,18.9,140,20,140z"/>
<path class="st2" d="M39.7,161.9l4,4l-4,4l-4-4L39.7,161.9z"/>
<path class="st2" d="M129,141c1.7,0,3-1.3,3-3s-1.3-3-3-3s-3,1.3-3,3S127.3,141,129,141z"/>
<path class="st2" d="M129,80c1.7,0,3-1.3,3-3s-1.3-3-3-3s-3,1.3-3,3S127.3,80,129,80z"/>
<path class="st2" d="M129,111c1.7,0,3-1.3,3-3s-1.3-3-3-3s-3,1.3-3,3S127.3,111,129,111z"/>
<path class="st2" d="M48,50.1c0-2.3,1.8-4.1,4.1-4.1h94.8c2.3,0,4.1,1.8,4.1,4.1v86.8c0,2.3-1.8,4.1-4.1,4.1H141v7c0,1.1-0.9,2-2,2
	H36c-1.1,0-2-0.9-2-2v-21c0-1.1,0.9-2,2-2h12v-4H36c-1.1,0-2-0.9-2-2V98c0-1.1,0.9-2,2-2h12.1C48,95.8,48,95.6,48,95.4V89H36
	c-1.1,0-2-0.9-2-2V66c0-1.1,0.9-2,2-2h12V50.1z M137,129H38v17h99C137,140.3,137,134.8,137,129z M146.9,137c0.1,0,0.1,0,0.1-0.1V60
	c-21.4,0-95,0-95,0v4h87c1.1,0,2,0.9,2,2v21c0,1.1-0.9,2-2,2H52v6.4c0,0.2,0,0.4-0.1,0.6H139c1.1,0,2,0.9,2,2v21c0,1.1-0.9,2-2,2H52
	v4h87c1.1,0,2,0.9,2,2v10H146.9z M79,56h68v-6c0,0-61.9,0-68,0V56z M75,50c-2,0-23,0-23,0c0,2.1,0,6,0,6h23V50z M38,85h99V68H38V85z
	 M38,100v17h99v-17H38z"/>
</svg>
