<?xml version="1.0" encoding="utf-8"?>
<!-- Generator: Adobe Illustrator 22.1.0, SVG Export Plug-In . SVG Version: 6.00 Build 0)  -->
<svg version="1.1" id="Camada_1" xmlns="http://www.w3.org/2000/svg" xmlns:xlink="http://www.w3.org/1999/xlink" x="0px" y="0px"
	 viewBox="0 0 196 196" style="enable-background:new 0 0 196 196;" xml:space="preserve">
<style type="text/css">
	.st0{opacity:7.000000e-02;enable-background:new    ;}
	.st1{opacity:0.2;enable-background:new    ;}
	.st2{fill:#538E46;}
</style>
<path class="st0" d="M35,177.5c-19.5-9-29.4-26.5-26-82c3.4-55.5,14.8-66.9,32.5-73s86.2-22,120,5.5s37.5,52.7,23,96.5
	s-22.3,63.2-60,61c-11.4-0.7-22.3-0.9-32.5-1C68.4,184.1,48.6,183.8,35,177.5z M33,42v26c0,3.9,3.1,7,7,7h113c3.9,0,7-3.1,7-7V42
	c0-3.9-3.1-7-7-7H40C36.1,35,33,38.1,33,42z M40,81c-3.9,0-7,3.1-7,7v27c0,3.9,3.1,7,7,7h113c3.9,0,7-3.1,7-7V88c0-3.9-3.1-7-7-7H40
	z"/>
<path class="st1" d="M42,48c0-2.2,1.8-4,4-4h112c3.9,0,7,3.1,7,7v23c0,3.9-3.1,7-7,7H49c-3.9,0-7-3.1-7-7V48z M42,95
	c0-2.2,1.8-4,4-4h112c3.9,0,7,3.1,7,7v22c0,3.9-3.1,7-7,7H49c-3.9,0-7-3.1-7-7V95z M41,131h3.2c1.1,0,2,0.9,2,2s-0.9,2-2,2H41h-1
	c-1.7,0-3,1.3-3,3v1v3.4c0,1.1-0.9,2-2,2s-2-0.9-2-2V139v-1c0-3.9,3.1-7,7-7H41z M52.6,133c0-1.1,0.9-2,2-2H63c1.1,0,2,0.9,2,2
	s-0.9,2-2,2h-8.4C53.5,135,52.6,134.1,52.6,133z M71.5,133c0-1.1,0.9-2,2-2h8.4c1.1,0,2,0.9,2,2s-0.9,2-2,2h-8.4
	C72.4,135,71.5,134.1,71.5,133z M90.3,133c0-1.1,0.9-2,2-2h8.4c1.1,0,2,0.9,2,2s-0.9,2-2,2h-8.4C91.2,135,90.3,134.1,90.3,133z
	 M109.1,133c0-1.1,0.9-2,2-2h8.4c1.1,0,2,0.9,2,2s-0.9,2-2,2h-8.4C110,135,109.1,134.1,109.1,133z M128,133c0-1.1,0.9-2,2-2h8.4
	c1.1,0,2,0.9,2,2s-0.9,2-2,2H130C128.9,135,128,134.1,128,133z M146.8,133c0-1.1,0.9-2,2-2h4.2c3.7,0,6.8,2.9,7,6.6
	c0,0.1,0,0.3,0,0.4v1v3.4c0,1.1-0.9,2-2,2s-2-0.9-2-2V139v-1c0,0,0-0.1,0-0.1c-0.1-1.5-1.3-2.8-2.8-2.9c-0.1,0-0.1,0-0.2,0h-4.2
	C147.7,135,146.8,134.1,146.8,133z M35,151.6c1.1,0,2,0.9,2,2v2.4v2c0,0,0,0,0,0.1c0,1.6,1.3,2.9,2.9,2.9c0,0,0.1,0,0.1,0h1h3.2
	c1.1,0,2,0.9,2,2s-0.9,2-2,2H41h-1c-0.1,0-0.1,0-0.2,0c-3.8-0.1-6.8-3.2-6.8-7v-2v-2.4C33,152.5,33.9,151.6,35,151.6z M158,151.6
	c1.1,0,2,0.9,2,2v2.4v2c0,0.1,0,0.2,0,0.3c-0.2,3.6-3,6.5-6.6,6.7c-0.1,0-0.3,0-0.4,0h-4.2c-1.1,0-2-0.9-2-2s0.9-2,2-2h4.2
	c0,0,0.1,0,0.1,0c1.5-0.1,2.8-1.3,2.9-2.8c0-0.1,0-0.1,0-0.2v-2v-2.4C156,152.5,156.9,151.6,158,151.6z M52.6,163c0-1.1,0.9-2,2-2
	H63c1.1,0,2,0.9,2,2s-0.9,2-2,2h-8.4C53.5,165,52.6,164.1,52.6,163z M71.5,163c0-1.1,0.9-2,2-2h8.4c1.1,0,2,0.9,2,2s-0.9,2-2,2h-8.4
	C72.4,165,71.5,164.1,71.5,163z M90.3,163c0-1.1,0.9-2,2-2h8.4c1.1,0,2,0.9,2,2s-0.9,2-2,2h-8.4C91.2,165,90.3,164.1,90.3,163z
	 M109.1,163c0-1.1,0.9-2,2-2h8.4c1.1,0,2,0.9,2,2s-0.9,2-2,2h-8.4C110,165,109.1,164.1,109.1,163z M128,163c0-1.1,0.9-2,2-2h8.4
	c1.1,0,2,0.9,2,2s-0.9,2-2,2H130C128.9,165,128,164.1,128,163z"/>
<path class="st2" d="M124.5,14.2l-4.2-4.2l-4.2,4.2l4.2,4.2L124.5,14.2z"/>
<path class="st2" d="M52,58c2.2,0,4-1.8,4-4s-1.8-4-4-4s-4,1.8-4,4S49.8,58,52,58z"/>
<path class="st2" d="M64,54c0-1.1,0.9-2,2-2h80c1.1,0,2,0.9,2,2s-0.9,2-2,2H66C64.9,56,64,55.1,64,54z"/>
<path class="st2" d="M33,42c0-3.9,3.1-7,7-7h113c3.9,0,7,3.1,7,7v26c0,3.9-3.1,7-7,7H40c-3.9,0-7-3.1-7-7V42z M40,39
	c-1.7,0-3,1.3-3,3v26c0,1.7,1.3,3,3,3h113c1.7,0,3-1.3,3-3V42c0-1.7-1.3-3-3-3H40z"/>
<path class="st2" d="M56,101c0,2.2-1.8,4-4,4s-4-1.8-4-4c0-2.2,1.8-4,4-4S56,98.8,56,101z"/>
<path class="st2" d="M66,99c-1.1,0-2,0.9-2,2c0,1.1,0.9,2,2,2h80c1.1,0,2-0.9,2-2c0-1.1-0.9-2-2-2H66z"/>
<path class="st2" d="M40,81c-3.9,0-7,3.1-7,7v27c0,3.9,3.1,7,7,7h113c3.9,0,7-3.1,7-7V88c0-3.9-3.1-7-7-7H40z M37,88
	c0-1.7,1.3-3,3-3h113c1.7,0,3,1.3,3,3v27c0,1.7-1.3,3-3,3H40c-1.7,0-3-1.3-3-3V88z"/>
<path class="st2" d="M188,142.5l-8.5-8.5l-8.5,8.5l8.5,8.5L188,142.5z M179.5,145.3l-2.8-2.8l2.8-2.8l2.8,2.8L179.5,145.3z"/>
<path class="st2" d="M8,97c1.1,0,2,0.9,2,2v4h4c1.1,0,2,0.9,2,2s-0.9,2-2,2h-4v4c0,1.1-0.9,2-2,2s-2-0.9-2-2v-4H2c-1.1,0-2-0.9-2-2
	s0.9-2,2-2h4v-4C6,97.9,6.9,97,8,97z"/>
</svg>
