<?xml version="1.0" encoding="utf-8"?>
<!-- Generator: Adobe Illustrator 22.1.0, SVG Export Plug-In . SVG Version: 6.00 Build 0)  -->
<svg version="1.1" id="Camada_1" xmlns="http://www.w3.org/2000/svg" xmlns:xlink="http://www.w3.org/1999/xlink" x="0px" y="0px"
	 viewBox="0 0 196 196" style="enable-background:new 0 0 196 196;" xml:space="preserve">
<style type="text/css">
	.st0{opacity:7.000000e-02;enable-background:new    ;}
	.st1{opacity:0.2;enable-background:new    ;}
	.st2{fill:#538E46;}
</style>
<path class="st0" d="M180,116c0,0-1.6-84.1-12.3-89.6c-3.4-1.8-6.3-3.6-9.2-5.5c-10.9-7-21.6-13.9-61.1-15.8
	C47.4,2.8,38.1,16.6,22.4,43.9C6.8,71.2-7.8,125.8,17.9,161.4c20.6,28.6,51.2,26.8,82.8,25c7.8-0.4,15.7-0.9,23.5-0.9
	C176.6,185.5,180,116,180,116z M53,33h84c3.9,0,7,3.1,7,7v120c0,3.9-3.1,7-7,7H53c-3.9,0-7-3.1-7-7V40C46,36.1,49.1,33,53,33z"/>
<path class="st1" d="M144,137H58c-2.2,0-4,1.8-4,4v26c0,2.2,1.8,4,4,4h81c5,0,9-4,9-9v-21C148,138.8,146.2,137,144,137z"/>
<path class="st2" d="M85,142c-1.1,0-2,0.9-2,2s0.9,2,2,2h20c1.1,0,2-0.9,2-2s-0.9-2-2-2H85z"/>
<path class="st2" d="M73,152c-1.1,0-2,0.9-2,2s0.9,2,2,2h44c1.1,0,2-0.9,2-2s-0.9-2-2-2H73z"/>
<path class="st2" d="M76.8,25.4c0.9-0.7,2.1-0.5,2.8,0.4l5.2,7.2h20.3c0.1-0.2,0.2-0.4,0.3-0.6l5.4-6.7c0.7-0.9,2-1,2.8-0.3
	c0.9,0.7,1,2,0.3,2.8l-3.8,4.7H137c3.9,0,7,3.1,7,7v120c0,3.9-3.1,7-7,7H53c-3.9,0-7-3.1-7-7V40c0-3.9,3.1-7,7-7h26.9l-3.5-4.8
	C75.7,27.3,75.9,26,76.8,25.4z M88.3,44.6L82.8,37H53c-1.7,0-3,1.3-3,3v89h9.9c0.4-3.6,2.3-6.5,5-8.8c2.9-2.6,6.9-4.4,11-5.7
	l7.9-3.5c0,0,0,0,0.1,0l0,0l0,0l0,0l0,0l0.1,0c0.1,0,0.2-0.1,0.4-0.2c0.3-0.2,0.8-0.4,1.2-0.6c0.4-0.3,0.8-0.5,1-0.8
	c0.1-0.1,0.1-0.1,0.1-0.1v-4.2c-1.8-1.8-3.1-4-4-6c-0.6-1.5-0.9-3.2-1-4.9c-0.2-0.3-0.4-0.6-0.7-1L80.8,93c-0.4-0.6-0.9-1.3-1.4-2.2
	c-0.9-1.9-1.5-4.4-1.5-8.3c0-5.1,2.1-9,5.3-11.6c3.1-2.6,7.3-3.8,11.3-3.8c4,0,8.2,1.2,11.3,3.8c3.2,2.6,5.3,6.5,5.3,11.6
	c0,2.7-0.2,4.4-0.8,6c-0.3,0.7-0.6,1.4-0.9,2.1l-0.1,0.3l0,0c-0.3,0.6-0.6,1.3-1,2.1c-0.1,0.3-0.3,0.6-0.6,0.8
	c-0.1,1.3-0.4,2.5-0.7,3.7c-0.7,2.4-1.9,4.8-3.3,6.7l1.1,4.6c0,0.1,0.1,0.3,0.1,0.4c0,0,0,0.1,0.1,0.2c0.2,0.2,0.4,0.5,0.8,0.7
	c2.1,1.5,4.6,2.5,7,3.4c1,0.4,2.1,0.8,3.1,1.2c3.5,1.2,6.6,2.9,8.9,5.3c2.2,2.3,3.4,5.3,3.6,8.9H140V40c0-1.7-1.3-3-3-3H87.8l4,5.5
	c1-0.3,2.1-0.5,3.2-0.5c5.5,0,10,4.5,10,10c0,5.5-4.5,10-10,10c-5.5,0-10-4.5-10-10C85,49,86.3,46.4,88.3,44.6z M124.3,129
	c-0.2-2.6-1.1-4.6-2.5-6.2c-1.7-1.8-4.1-3.2-7.3-4.3c-0.1,0-0.1,0-0.1-0.1l-5.1-2.2c-0.2,1.4-0.7,2.6-1.5,3.7
	c-1,1.4-2.4,2.3-3.8,2.9c-2.9,1.2-6.4,1.5-9.2,1.5c-2.9,0-6.1-0.9-8.7-2.6c-2-1.3-3.7-3-4.7-5.3l-3.9,1.7c-0.1,0-0.2,0.1-0.3,0.1
	c-3.8,1.1-7.2,2.8-9.6,4.9c-1.9,1.7-3.2,3.6-3.6,5.8H124.3z M50,160c0,1.7,1.3,3,3,3h84c1.7,0,3-1.3,3-3v-27H50V160z M90.7,47.8
	C89.6,48.9,89,50.4,89,52c0,3.3,2.7,6,6,6s6-2.7,6-6c0-1.7-0.7-3.2-1.8-4.3c0,0,0,0,0,0.1l-1.5,2c-0.7,0.9-1.7,1.5-2.8,1.5
	c-1.1,0-2.1-0.6-2.8-1.5l0,0L90.7,47.8z M95.4,46c-0.1,0-0.3,0-0.4,0c-0.2,0-0.4,0-0.6,0l0.5,0.7L95.4,46z M85.7,73.9
	c-2.3,1.9-3.8,4.7-3.8,8.5c0,1.8,0.1,3.2,0.4,4.2c0.4-2.1,1-4.1,1.7-5.7c0.4-0.8,0.7-1.6,1.2-2.3c0.4-0.6,0.9-1.3,1.6-1.7
	c0.4-0.3,1-0.7,1.8-0.7c0.5,0,0.9,0,1.4,0.3c0.4,0.2,0.7,0.5,0.8,0.8c0.2,0.3,0.4,0.7,0.5,1l0,0l0,0c0.1,0.3,0.2,0.5,0.4,0.8
	c0.6,0.9,2.1,2.7,8.1,3.5c3.3,0.5,5.5,2.1,6.8,4.4c0.3-1,0.5-2.1,0.5-4.6c0-3.9-1.6-6.7-3.8-8.5c-2.3-1.9-5.5-2.9-8.8-2.9
	C91.2,71,88,72,85.7,73.9z M87.6,82.5c-0.6,1.4-1.1,3.1-1.5,5c-0.4,1.9-0.6,3.8-0.6,5.6c0,1.8,0.3,3.3,0.7,4.4
	c0.8,1.8,2.1,3.8,3.7,5.3c1.7,1.5,3.5,2.5,5.4,2.6c1,0.1,2.5-0.6,4.1-2.4c1.5-1.7,2.8-4.2,3.6-6.7c0.8-2.5,0.8-4.9,0.2-6.6
	c-0.5-1.5-1.7-2.7-4.1-3.1c-6.6-1-9.5-3.2-10.9-5.3l0-0.1C88.1,81.6,87.9,82,87.6,82.5z M100.4,107.6c-1.5,1.1-3.3,1.9-5.2,1.8
	c-1.7-0.1-3.2-0.6-4.6-1.3v1.2c0,1.2-0.6,2.1-1.2,2.7c-0.6,0.6-1.2,1.1-1.8,1.5c-0.6,0.4-1.2,0.7-1.6,0.9c-0.2,0.1-0.4,0.2-0.5,0.2
	c0,0-0.1,0-0.1,0l0,0l0,0l0,0l-0.4,0.2c0.6,1.3,1.7,2.5,3.2,3.5c2,1.2,4.4,1.9,6.5,1.9c2.8,0,5.6-0.3,7.6-1.2c1-0.4,1.7-1,2.2-1.6
	c0.5-0.6,0.8-1.5,0.8-2.7c0-0.1,0-0.2,0-0.3c-0.2-0.1-0.4-0.2-0.6-0.3c-0.4-0.2-0.9-0.5-1.4-0.9c-0.5-0.4-1.1-0.9-1.6-1.5
	c-0.4-0.6-0.9-1.3-0.9-2.3L100.4,107.6z M86.6,109.2C86.6,109.2,86.6,109.2,86.6,109.2L86.6,109.2z"/>
<path class="st2" d="M26.5,38l8.5,8.5L26.5,55L18,46.5L26.5,38z M23.7,46.5l2.8,2.8l2.8-2.8l-2.8-2.8L23.7,46.5z"/>
<path class="st2" d="M174,35l-4-4l-4,4l4,4L174,35z"/>
<path class="st2" d="M174,141c1.1,0,2,0.9,2,2v4h4c1.1,0,2,0.9,2,2s-0.9,2-2,2h-4v4c0,1.1-0.9,2-2,2s-2-0.9-2-2v-4h-4
	c-1.1,0-2-0.9-2-2s0.9-2,2-2h4v-4C172,141.9,172.9,141,174,141z"/>
</svg>
