<svg xmlns="http://www.w3.org/2000/svg" viewBox="0 0 300 77"><defs><style>.a{fill:#538e46;}</style></defs><title>logounoeste</title><path class="a" d="M9.6,62.8a17.34,17.34,0,0,0,3.89,2.87c7.39,2.25,18.74-1.86,28.06-10.82a44.4,44.4,0,0,0,9.58-13.14V39a43.57,43.57,0,0,1-10.2,14.56C30.1,64,16.52,67.87,9.6,62.8Z"/><path class="a" d="M19.23,67.85a34.1,34.1,0,0,0,4.3.72c6.46-1,14-4.9,20.47-11.17a47.69,47.69,0,0,0,7.12-8.65c0-.21,0-.43,0-.65V46.26a46.28,46.28,0,0,1-8.06,10.16C35.4,63.83,26.32,67.92,19.23,67.85Z"/><path class="a" d="M30.62,68.67a33.79,33.79,0,0,0,5.07-.73c8.31-1.87,13.46-6.9,15-14.7A49,49,0,0,1,45.56,59,44.48,44.48,0,0,1,30.62,68.67Z"/><path class="a" d="M35.57,8.2V48.1c0,6.39-2.23,8.55-5.13,9.21h0a13.06,13.06,0,0,1-2.76.26c-4.11,0-7.9-1.15-7.9-9.48V8.2H4.22V48.1c0,5.51,1.43,10,4.16,13.36,7,4.72,20.35.82,31-9.44,6.4-6.16,10.5-13.37,11.76-19.67V8.2H35.57Z"/><path class="a" d="M74,19.21c-.78,0-1.54,0-2.27.1v0a28,28,0,0,0-4.31.6c-5.65,1.28-9.52,4.33-11.38,9-.13.33-.25.67-.36,1-.16.49-.3,1-.42,1.51a21.44,21.44,0,0,0-.51,4.81V68.92H67.56V36.18c0-5.25,1.83-7,4.21-7.57h0A10.54,10.54,0,0,1,74,28.4c3.37,0,6.49.94,6.49,7.78V68.92H93.29V36.18C93.29,25.24,86.46,19.21,74,19.21Z"/><path class="a" d="M116.14,19.21c-12.42,0-19.25,6-19.25,17V51.87c0,11,6.83,17.05,19.25,17.05s19.25-6.06,19.25-17.05V36.18C135.39,25.24,128.55,19.21,116.14,19.21Zm6.48,32.66c0,6.91-3.11,7.87-6.48,7.87s-6.58-1-6.58-7.87V36.18c0-6.84,3.16-7.78,6.58-7.78s6.48.94,6.48,7.78Z"/><path class="a" d="M177.44,35.7c0-.18,0-.37,0-.55-.41-10.3-7.2-16-19.23-16-12.41,0-19.25,6-19.25,17h0V51.85h0c0,11,6.84,17.06,19.25,17.06l1.24,0c11.63-.4,18-6.41,18-17v-.29H164.68v3c0,3.05-1,5-5.77,5.17h-.71c-3,0-5.78-.73-6.43-5.54a16.29,16.29,0,0,1-.15-2.33V48.64h25.83V36.16h0C177.45,36,177.45,35.86,177.44,35.7Zm-12.76,3.76H151.62v-3.3c0-6.84,3.16-7.78,6.58-7.78,3,0,5.7.72,6.34,5.48a16,16,0,0,1,.14,2.3Z"/><path class="a" d="M234.18,8.11H221.54v45c.48,10,7,15.59,18.41,15.84h13.58V58.39H241c-.26,0-1,0-1.09,0-3.25-.35-5.54-3.38-5.68-6.53V28.64h19.35V19l-19.35,0Z"/><path class="a" d="M217.85,34.24V32.53a14.34,14.34,0,0,0-.52-3.89c-1.24-4.43-5.17-9.24-16.26-9.64l-3.67,0-2,.17-.82.1-1,.17-1,.19c-9.62,2.12-11.3,8.74-11.33,12.93v.08c0,.05,0,.1,0,.15a1.48,1.48,0,0,0,0,.21.41.41,0,0,0,0,.11c.32,5.61,5.23,10.41,15,14.65,5.76,2.55,8.94,5.19,8.94,7.43,0,0,0,.09,0,.13h0c0,2.21-.44,4.37-5.64,4.37a9.76,9.76,0,0,1-3.37-.48c-2-.75-2.26-2.31-2.26-3.89v-3.8H181.23v3.8a14.39,14.39,0,0,0,.52,3.89c1.24,4.43,5.17,9.24,16.26,9.64q.75,0,1.53,0c.64,0,1.26,0,1.86,0h.28l.46,0h.27l1-.09.32,0,.81-.1.46-.07.59-.1.65-.13.31-.06c9.62-2.12,11.31-8.75,11.33-12.93v-.09s0-.09,0-.14v-.21a.41.41,0,0,1,0-.11c-.33-5.61-5.24-10.42-15-14.66-5.76-2.54-8.93-5.18-8.93-7.43v-.13c0-2.21.43-4.37,5.63-4.37a9.52,9.52,0,0,1,3.37.48c2,.75,2.27,2.31,2.27,3.89v1.71Z"/><path class="a" d="M295.77,35.7c0-.18,0-.37,0-.55-.42-10.3-7.21-16-19.23-16-12.42,0-19.25,6-19.25,17h0V51.85h0c0,11,6.83,17.06,19.25,17.06l1.23,0c11.63-.4,18-6.41,18-17v-.29H283v3c0,3.05-1,5-5.78,5.17h-.7c-3,0-5.79-.73-6.44-5.54a18,18,0,0,1-.14-2.33V48.64h25.83V36.16h0C295.78,36,295.77,35.86,295.77,35.7ZM283,39.46H270v-3.3c0-6.84,3.16-7.78,6.58-7.78,2.94,0,5.7.72,6.34,5.48a17.64,17.64,0,0,1,.14,2.3Z"/></svg>